# xmcd CD database file generated by OrangeCD 4.3
#
# Track frame offsets:
#	150
#	4176
#	20731
#	35127
#	48684
#	62904
#	78192
#	95131
#	96647
#	103992
#	119579
#	121895
#	137597
#
# Disc length: 2089 seconds
#
# Revision: 0
# Processed by: cddbd v1.4PL0 Copyright (c) Steve Scherf et al.
# Submitted via: OrangeCD 4.3
#
DISCID=c108270d
DTITLE=Lil Puppet - Who's That Vato
DYEAR=2001
DGENRE=Blues
TTITLE0=Intro
TTITLE1=Don't Stop
TTITLE2=Another Noche
TTITLE3=Hide and Seek
TTITLE4=Freaky tales
TTITLE5=Party Over Here
TTITLE6=Aztec Queen
TTITLE7=Mariachi Skit
TTITLE8=Ese Puppet No Juega
TTITLE9=On the Blvd.
TTITLE10=Revenge
TTITLE11=Who;s That Vato
TTITLE12=It's Gonna Be Alright
EXTD=
EXTT0=
EXTT1=
EXTT2=
EXTT3=
EXTT4=
EXTT5=
EXTT6=
EXTT7=
EXTT8=
EXTT9=
EXTT10=
EXTT11=
EXTT12=
PLAYORDER=
